<?xml version="1.0" encoding="UTF-8" standalone="no"?>
<svg
   xmlns:dc="http://purl.org/dc/elements/1.1/"
   xmlns:cc="http://creativecommons.org/ns#"
   xmlns:rdf="http://www.w3.org/1999/02/22-rdf-syntax-ns#"
   xmlns:svg="http://www.w3.org/2000/svg"
   xmlns="http://www.w3.org/2000/svg"
   id="svg1406"
   version="1.1"
   viewBox="0 0 24 24.000001"
   height="24"
   width="24">
  <metadata
     id="metadata1412">
    <rdf:RDF>
      <cc:Work
         rdf:about="">
        <dc:format>image/svg+xml</dc:format>
        <dc:type
           rdf:resource="http://purl.org/dc/dcmitype/StillImage" />
        <dc:title></dc:title>
      </cc:Work>
    </rdf:RDF>
  </metadata>
  <defs
     id="defs1410" />
  <g
     transform="translate(466.21577,-104.22902)"
     id="g4885">
    <path
       style="fill:none"
       d="m -466.21577,104.22902 h 24 v 24 h -24 z"
       id="path4755-7-1" />
    <path
       style="fill:#000000;stroke-width:0.02204751"
       d="m -462.12998,126.1286 c -0.0424,-0.01 -0.1367,-0.0302 -0.20945,-0.045 -0.30456,-0.0619 -0.6159,-0.20558 -0.88383,-0.40783 -0.47945,-0.36192 -0.76498,-0.85047 -0.88842,-1.52012 -0.032,-0.17352 -0.0354,-15.68107 -0.004,-15.82296 0.0116,-0.0517 0.0331,-0.15355 0.0478,-0.2263 0.16963,-0.84236 0.88559,-1.55831 1.72794,-1.72794 0.0728,-0.0147 0.17459,-0.0362 0.2263,-0.0478 0.14123,-0.0318 13.44399,-0.0285 13.58063,0.003 0.22219,0.0518 0.35217,0.0944 0.47529,0.15587 0.42246,0.21093 1.07356,0.76922 2.05644,1.76334 1.03822,1.05008 1.49779,1.62836 1.61796,2.03589 0.093,0.31526 0.0893,0.0229 0.0893,7.05387 0,4.82488 -0.007,6.71618 -0.0246,6.81269 -0.12344,0.66965 -0.40897,1.15821 -0.88842,1.52013 -0.26825,0.20248 -0.58053,0.34649 -0.88382,0.40756 -0.0728,0.0146 -0.1746,0.0361 -0.22631,0.0478 -0.11662,0.0263 -15.70131,0.0237 -15.81326,-0.002 z m 15.08442,-0.79568 c 0.25411,-0.11918 0.41785,-0.33811 0.46065,-0.61591 0.0139,-0.0899 0.0195,-1.54471 0.0156,-4.01047 -0.006,-3.75271 -0.007,-3.87233 -0.0483,-3.96855 -0.0974,-0.22927 -0.25048,-0.37935 -0.4734,-0.46405 -0.11151,-0.0424 -0.22365,-0.043 -7.12393,-0.043 -6.90027,0 -7.01241,7e-4 -7.12392,0.043 -0.22293,0.0847 -0.37603,0.23478 -0.4734,0.46405 -0.0409,0.0962 -0.0423,0.21584 -0.0483,3.96855 -0.004,2.46576 0.002,3.92053 0.0156,4.01047 0.0528,0.34268 0.30502,0.60898 0.62994,0.66513 0.0485,0.008 3.2283,0.0139 7.06622,0.0124 l 6.97804,-0.003 z m -2.47325,-11.3964 c 0.31218,-0.0504 0.55853,-0.28085 0.63143,-0.5906 0.0392,-0.16655 0.0441,-5.46841 0.005,-5.65184 -0.0526,-0.24841 -0.21667,-0.4554 -0.4441,-0.56044 l -0.13744,-0.0635 -5.02684,-0.006 c -3.17483,-0.004 -5.07816,0.002 -5.16617,0.0153 -0.26348,0.0405 -0.46705,0.18631 -0.59239,0.4243 l -0.062,0.11768 v 2.8772 2.8772 l 0.0573,0.12126 c 0.10809,0.22889 0.32949,0.39741 0.57608,0.43848 0.17311,0.0288 9.98066,0.0298 10.15892,0.001 z m -3.15279,-3.42696 v -2.65712 l 1.12994,0.006 1.12993,0.006 v 2.6457 2.6457 l -1.12993,0.006 -1.12994,0.006 z"
       id="path4771-6-0" />
    <text
       xml:space="preserve"
       style="font-style:normal;font-variant:normal;font-weight:bold;font-stretch:normal;font-size:6.66666651px;line-height:1;font-family:'Noto Serif Lao';-inkscape-font-specification:'Noto Serif Lao Bold';font-variant-ligatures:normal;font-variant-position:normal;font-variant-caps:normal;font-variant-numeric:normal;font-variant-alternates:normal;font-feature-settings:normal;text-indent:0;text-align:center;text-decoration:none;text-decoration-line:none;text-decoration-style:solid;text-decoration-color:#000000;letter-spacing:0px;word-spacing:0px;text-transform:none;writing-mode:lr-tb;direction:ltr;text-orientation:mixed;dominant-baseline:auto;baseline-shift:baseline;text-anchor:middle;white-space:normal;shape-padding:0;opacity:1;vector-effect:none;fill:#000000;fill-opacity:1;stroke:none;stroke-width:0.63208973px;stroke-linecap:butt;stroke-linejoin:miter;stroke-miterlimit:4;stroke-dasharray:none;stroke-dashoffset:0;stroke-opacity:1"
       x="-454.26624"
       y="123.2588"
       id="text925-8-9-5-8"><tspan
         x="-454.26624"
         y="123.2588"
         id="tspan927-9-1-7-7"
         style="font-style:normal;font-variant:normal;font-weight:bold;font-stretch:normal;font-size:6.66666651px;font-family:'Noto Serif Lao';-inkscape-font-specification:'Noto Serif Lao Bold';font-variant-ligatures:normal;font-variant-position:normal;font-variant-caps:normal;font-variant-numeric:normal;font-variant-alternates:normal;font-feature-settings:normal;text-indent:0;text-align:center;text-decoration:none;text-decoration-line:none;text-decoration-style:solid;text-decoration-color:#000000;letter-spacing:0px;word-spacing:0px;text-transform:none;writing-mode:lr-tb;direction:ltr;text-orientation:mixed;dominant-baseline:auto;baseline-shift:baseline;text-anchor:middle;white-space:normal;shape-padding:0;vector-effect:none;fill:#000000;fill-opacity:1;stroke:none;stroke-width:0.63208973px;stroke-linecap:butt;stroke-linejoin:miter;stroke-miterlimit:4;stroke-dasharray:none;stroke-dashoffset:0;stroke-opacity:1">B2B</tspan></text>
  </g>
</svg>
